<?xml version="1.0" encoding="utf-8"?>
<!-- Generator: Adobe Illustrator 28.4.1, SVG Export Plug-In . SVG Version: 6.00 Build 0)  -->
<svg version="1.1" id="Layer_1" xmlns="http://www.w3.org/2000/svg" xmlns:xlink="http://www.w3.org/1999/xlink" x="0px" y="0px"
	 viewBox="0 0 160 50" style="enable-background:new 0 0 160 50;" xml:space="preserve">
<style type="text/css">
	.st0{fill:#E4C590;}
	.st1{fill:#FFFFFF;}
	.st2{fill:#FFFFFF;filter:url(#Adobe_OpacityMaskFilter);}
	.st3{mask:url(#path-2-outside-1_29_6_00000021077470899289185980000016366860303160201608_);fill:#FFFFFF;stroke:#FFFFFF;}
	.st4{fill:#FFFFFF;filter:url(#Adobe_OpacityMaskFilter_00000167384506323014657760000009934427733130845372_);}
	.st5{mask:url(#path-2-outside-1_29_6_00000085954833209243523320000008313452532297773748_);fill:#FFFFFF;stroke:#FFFFFF;}
	.st6{fill:#FFFFFF;filter:url(#Adobe_OpacityMaskFilter_00000016789627634314991920000010174826961602819214_);}
	.st7{mask:url(#path-2-outside-1_29_6_00000128475164532033999990000007768738631923427979_);fill:#FFFFFF;stroke:#FFFFFF;}
	.st8{fill:#FFFFFF;filter:url(#Adobe_OpacityMaskFilter_00000075871651030667048930000008514640402194270631_);}
	.st9{mask:url(#path-2-outside-1_29_6_00000039102088982920690320000009047201429454579126_);fill:#FFFFFF;stroke:#FFFFFF;}
	.st10{fill-rule:evenodd;clip-rule:evenodd;fill:#E4C590;}
	.st11{font-family:'MyriadPro-Regular';}
	.st12{font-size:37.2381px;}
</style>
<path class="st0" d="M54,44.5v-7.7h2.7c0.6,0,1.1,0.1,1.5,0.3c0.4,0.2,0.7,0.5,0.9,0.8c0.2,0.3,0.3,0.7,0.3,1.2
	c0,0.5-0.1,0.9-0.4,1.3c-0.2,0.4-0.6,0.7-1.2,0.8l1.6,3.3H58l-1.5-3.1h-1.4v3.1H54z M55.2,40.5h1.4c0.5,0,0.9-0.1,1.2-0.4
	c0.2-0.3,0.4-0.6,0.4-1c0-0.4-0.1-0.7-0.4-1c-0.2-0.2-0.6-0.4-1.2-0.4h-1.4V40.5z"/>
<path class="st0" d="M64.7,44.5v-7.7h4.9v0.9h-3.7v2.4h3.4V41h-3.4v2.5h3.7v0.9H64.7z"/>
<path class="st0" d="M77.4,44.6c-0.6,0-1.1-0.1-1.5-0.3c-0.4-0.2-0.8-0.5-1-0.8c-0.2-0.4-0.4-0.8-0.4-1.3h1.2c0,0.4,0.2,0.8,0.4,1
	c0.3,0.3,0.7,0.4,1.2,0.4c0.4,0,0.8-0.1,1-0.3c0.3-0.2,0.4-0.5,0.4-0.8c0-0.3-0.1-0.5-0.2-0.7c-0.1-0.2-0.3-0.3-0.5-0.4
	c-0.2-0.1-0.4-0.2-0.7-0.3c-0.3-0.1-0.6-0.2-0.9-0.3c-0.6-0.2-1-0.5-1.3-0.8c-0.3-0.3-0.4-0.7-0.4-1.2c0-0.4,0.1-0.8,0.3-1.1
	c0.2-0.3,0.5-0.6,0.9-0.7c0.4-0.2,0.8-0.3,1.3-0.3c0.5,0,0.9,0.1,1.3,0.3c0.4,0.2,0.7,0.4,0.9,0.8c0.2,0.3,0.3,0.7,0.3,1.1h-1.2
	c0-0.2-0.1-0.4-0.2-0.6c-0.1-0.2-0.3-0.3-0.5-0.5c-0.2-0.1-0.4-0.2-0.7-0.2c-0.4,0-0.7,0.1-0.9,0.3c-0.2,0.2-0.4,0.5-0.4,0.8
	c0,0.3,0.1,0.5,0.3,0.7c0.2,0.2,0.4,0.3,0.7,0.4c0.3,0.1,0.7,0.2,1.1,0.4c0.4,0.1,0.7,0.3,1,0.5c0.3,0.2,0.5,0.4,0.7,0.7
	c0.2,0.3,0.3,0.6,0.3,1.1c0,0.4-0.1,0.8-0.3,1.1c-0.2,0.3-0.5,0.6-0.9,0.8C78.5,44.5,78,44.6,77.4,44.6z"/>
<path class="st0" d="M87,44.5v-6.8h-2.3v-0.9h5.7v0.9h-2.3v6.8H87z"/>
<path class="st0" d="M94.1,44.5l2.8-7.7h1.3l2.8,7.7h-1.2l-0.7-1.9H96l-0.7,1.9H94.1z M96.4,41.7h2.5l-1.2-3.5L96.4,41.7z"/>
<path class="st0" d="M108.7,44.6c-0.6,0-1-0.1-1.5-0.3c-0.4-0.2-0.8-0.6-1.1-1c-0.3-0.4-0.4-1-0.4-1.7v-4.8h1.2v4.8
	c0,0.7,0.2,1.2,0.5,1.5c0.3,0.3,0.8,0.5,1.3,0.5c0.5,0,1-0.2,1.3-0.5c0.3-0.3,0.5-0.8,0.5-1.5v-4.8h1.2v4.8c0,0.7-0.1,1.3-0.4,1.7
	c-0.3,0.4-0.6,0.8-1.1,1C109.7,44.5,109.2,44.6,108.7,44.6z"/>
<path class="st0" d="M117.1,44.5v-7.7h2.7c0.6,0,1.1,0.1,1.5,0.3c0.4,0.2,0.7,0.5,0.9,0.8c0.2,0.3,0.3,0.7,0.3,1.2
	c0,0.5-0.1,0.9-0.4,1.3c-0.2,0.4-0.6,0.7-1.2,0.8l1.6,3.3h-1.4l-1.5-3.1h-1.4v3.1H117.1z M118.2,40.5h1.4c0.5,0,0.9-0.1,1.2-0.4
	c0.2-0.3,0.4-0.6,0.4-1c0-0.4-0.1-0.7-0.4-1c-0.2-0.2-0.6-0.4-1.2-0.4h-1.4V40.5z"/>
<path class="st0" d="M127.2,44.5l2.8-7.7h1.3l2.8,7.7h-1.2l-0.7-1.9h-3.1l-0.7,1.9H127.2z M129.5,41.7h2.5l-1.2-3.5L129.5,41.7z"/>
<path class="st0" d="M139.2,44.5v-7.7h1.2l3.9,5.8v-5.8h1.2v7.7h-1.2l-3.9-5.8v5.8H139.2z"/>
<path class="st0" d="M152.7,44.5v-6.8h-2.3v-0.9h5.7v0.9h-2.3v6.8H152.7z"/>
<path class="st1" d="M90.4,6.4h6.5v0.4h-0.2c-0.2,0-0.4,0.1-0.6,0.2c-0.2,0.1-0.3,0.3-0.5,0.5c-0.1,0.2-0.2,0.4-0.3,0.6
	c-0.1,0.2-0.1,0.4-0.1,0.6V29c0,0.2,0,0.4,0.1,0.7c0.1,0.2,0.2,0.4,0.3,0.6c0.2,0.2,0.3,0.4,0.5,0.5c0.2,0.2,0.4,0.2,0.6,0.2h0.2
	v0.4h-6.5v-0.4h0.2c0.2,0,0.5-0.1,0.6-0.2c0.2-0.2,0.3-0.3,0.5-0.5c0.2-0.2,0.3-0.5,0.3-0.7c0.1-0.3,0.1-0.5,0.1-0.7V8.7
	c0-0.2,0-0.4-0.1-0.6c-0.1-0.2-0.2-0.4-0.3-0.6c-0.1-0.2-0.3-0.4-0.5-0.5c-0.2-0.2-0.4-0.2-0.6-0.2h-0.2V6.4z"/>
<path class="st1" d="M102.6,31.1h0.2c0.2,0,0.5-0.1,0.6-0.2c0.2-0.2,0.3-0.3,0.5-0.5c0.2-0.2,0.3-0.4,0.3-0.6
	c0.1-0.2,0.1-0.4,0.1-0.6V8.7c0-0.2,0-0.4-0.1-0.6c-0.1-0.2-0.2-0.4-0.3-0.6c-0.1-0.2-0.3-0.4-0.5-0.5c-0.2-0.2-0.4-0.2-0.6-0.2
	h-0.2V6.4h6.5v0.4h-0.2c-0.2,0-0.5,0.1-0.6,0.2c-0.2,0.1-0.3,0.3-0.5,0.5c-0.1,0.2-0.2,0.4-0.3,0.6c-0.1,0.2-0.1,0.4-0.1,0.6v21.3
	h9.9c0.6,0,1.1-0.1,1.5-0.3c0.4-0.2,0.8-0.5,1-0.8c0.3-0.4,0.5-0.7,0.6-1.1c0.2-0.4,0.2-0.8,0.2-1.1h0.5v4.8h-18.6V31.1z"/>
<path class="st1" d="M125,31.1h0.2c0.2,0,0.5-0.1,0.6-0.2c0.2-0.2,0.3-0.3,0.5-0.5c0.2-0.2,0.3-0.4,0.3-0.6c0.1-0.2,0.1-0.4,0.1-0.6
	V8.7c0-0.2,0-0.4-0.1-0.6c-0.1-0.2-0.2-0.4-0.3-0.6c-0.1-0.2-0.3-0.4-0.5-0.5c-0.2-0.2-0.4-0.2-0.6-0.2H125V6.4h6.5v0.4h-0.2
	c-0.2,0-0.5,0.1-0.6,0.2c-0.2,0.1-0.3,0.3-0.5,0.5c-0.1,0.2-0.2,0.4-0.3,0.6c-0.1,0.2-0.1,0.4-0.1,0.6v21.3h9.9
	c0.6,0,1.1-0.1,1.5-0.3c0.4-0.2,0.8-0.5,1-0.8c0.3-0.4,0.5-0.7,0.6-1.1c0.2-0.4,0.2-0.8,0.2-1.1h0.5v4.8H125V31.1z"/>
<path class="st1" d="M147.6,6.4h6.5v0.4h-0.2c-0.2,0-0.4,0.1-0.6,0.2c-0.2,0.1-0.3,0.3-0.5,0.5c-0.1,0.2-0.2,0.4-0.3,0.6
	c-0.1,0.2-0.1,0.4-0.1,0.6V29c0,0.2,0,0.4,0.1,0.7c0.1,0.2,0.2,0.4,0.3,0.6c0.2,0.2,0.3,0.4,0.5,0.5c0.2,0.2,0.4,0.2,0.6,0.2h0.2
	v0.4h-6.5v-0.4h0.2c0.2,0,0.5-0.1,0.6-0.2c0.2-0.2,0.3-0.3,0.5-0.5c0.2-0.2,0.3-0.5,0.3-0.7c0.1-0.3,0.1-0.5,0.1-0.7V8.7
	c0-0.2,0-0.4-0.1-0.6c-0.1-0.2-0.2-0.4-0.3-0.6c-0.1-0.2-0.3-0.4-0.5-0.5c-0.2-0.2-0.4-0.2-0.6-0.2h-0.2V6.4z"/>
<defs>
	<filter id="Adobe_OpacityMaskFilter" filterUnits="userSpaceOnUse" x="89.9" y="5.9" width="7.5" height="26.1">
		<feColorMatrix  type="matrix" values="1 0 0 0 0  0 1 0 0 0  0 0 1 0 0  0 0 0 1 0"/>
	</filter>
</defs>
<mask maskUnits="userSpaceOnUse" x="89.9" y="5.9" width="7.5" height="26.1" id="path-2-outside-1_29_6_00000021077470899289185980000016366860303160201608_">
	<rect x="31.8" y="5" class="st2" width="123.8" height="28"/>
	<path d="M52.8,18.2h6.5v0.4H59c-0.2,0-0.5,0.1-0.6,0.2c-0.2,0.1-0.3,0.3-0.5,0.5c-0.1,0.2-0.2,0.4-0.3,0.6
		c-0.1,0.2-0.1,0.4-0.1,0.6v10.2c-0.5,0.2-1.2,0.3-1.9,0.5c-0.7,0.1-1.4,0.2-2.2,0.3c-0.8,0.1-1.5,0.2-2.3,0.2
		c-0.8,0.1-1.5,0.1-2.2,0.1c-2.7,0-5.1-0.4-7.1-1.1c-2-0.8-3.7-1.7-5-3c-1.3-1.2-2.3-2.6-3-4.2c-0.6-1.5-1-3.1-1-4.7s0.3-3.1,1-4.7
		c0.7-1.5,1.7-2.9,3-4.1c1.4-1.2,3-2.2,5.1-2.9C44,6.4,46.5,6,49.3,6c1.1,0,2,0.1,2.9,0.2c0.9,0.2,1.7,0.3,2.4,0.4
		c0.4,0.1,0.7,0.2,1,0.2c0.3,0.1,0.6,0.1,0.8,0.1h0.4v4h-0.5c-0.2-0.8-0.5-1.4-1.1-1.9c-0.5-0.5-1.1-0.8-1.8-1.1
		c-0.7-0.3-1.4-0.4-2.2-0.5c-0.8-0.1-1.5-0.2-2.1-0.2c-2.3,0-4.2,0.3-5.9,1c-1.7,0.7-3,1.5-4.1,2.6s-1.8,2.3-2.4,3.6
		c-0.5,1.3-0.8,2.6-0.8,4c0,1.5,0.3,2.9,1,4.4c0.7,1.4,1.6,2.7,2.8,3.8c1.2,1.1,2.7,2,4.3,2.7c1.7,0.7,3.6,1,5.7,1
		c0.6,0,1.3-0.1,2.1-0.2c0.8-0.1,1.7-0.4,2.5-0.8v-8.9c0-0.2,0-0.4-0.1-0.6c-0.1-0.2-0.2-0.4-0.3-0.6c-0.1-0.2-0.3-0.4-0.5-0.5
		c-0.2-0.2-0.4-0.2-0.6-0.2h-0.2V18.2z"/>
	<path d="M70.6,31.1h0.2v0.4h-6.4v-0.4h0.2c0.2,0,0.4-0.1,0.6-0.2c0.2-0.2,0.3-0.3,0.5-0.5c0.2-0.2,0.3-0.4,0.3-0.6
		c0.1-0.3,0.1-0.5,0.1-0.7V8.7c0-0.2,0-0.4-0.1-0.6c-0.1-0.2-0.2-0.4-0.3-0.6c-0.1-0.2-0.3-0.4-0.5-0.5c-0.2-0.2-0.4-0.2-0.6-0.2
		h-0.2V6.4h7.9c3,0,5.3,0.5,7,1.5c1.7,1,2.5,2.4,2.5,4.4c0,1-0.2,1.8-0.6,2.5c-0.4,0.7-0.9,1.3-1.5,1.9c-0.6,0.5-1.4,0.9-2.3,1.3
		c-0.8,0.3-1.7,0.5-2.7,0.7l3.3,4.2c0.8,1,1.6,2,2.4,3c0.8,1,1.6,2,2.4,3c0.2,0.3,0.4,0.5,0.7,0.8c0.3,0.3,0.5,0.5,0.8,0.8
		c0.3,0.2,0.6,0.4,0.9,0.6c0.3,0.1,0.7,0.2,1,0.2v0.4h-1.9c-1.2,0-2.2-0.2-3-0.7c-0.8-0.5-1.4-1.1-1.9-1.7c-1.4-1.7-2.7-3.4-4.1-5.1
		c-1.3-1.7-2.7-3.4-4-5.1c-0.3,0-0.7-0.1-1.1-0.1c-0.4-0.1-0.7-0.1-1-0.2V29c0,0.2,0,0.4,0.1,0.7c0.1,0.2,0.2,0.4,0.3,0.6
		c0.2,0.2,0.3,0.4,0.5,0.5C70.1,31,70.4,31.1,70.6,31.1z M69.2,7.7v9.7h0.2c0.2,0,0.6,0.1,1.1,0.1c0.5,0,1.2,0,2,0
		c0.6,0,1.3-0.1,2-0.2c0.7-0.2,1.4-0.5,2-0.8c0.6-0.4,1.1-0.9,1.5-1.6c0.4-0.6,0.6-1.4,0.6-2.4S78.4,10.6,78,10
		c-0.4-0.6-1-1.1-1.8-1.4c-0.8-0.4-1.7-0.6-2.8-0.7s-2.3-0.2-3.6-0.2H69.2z"/>
	<path d="M90.4,6.4h6.5v0.4h-0.2c-0.2,0-0.4,0.1-0.6,0.2c-0.2,0.1-0.3,0.3-0.5,0.5c-0.1,0.2-0.2,0.4-0.3,0.6
		c-0.1,0.2-0.1,0.4-0.1,0.6V29c0,0.2,0,0.4,0.1,0.7c0.1,0.2,0.2,0.4,0.3,0.6c0.2,0.2,0.3,0.4,0.5,0.5c0.2,0.2,0.4,0.2,0.6,0.2h0.2
		v0.4h-6.5v-0.4h0.2c0.2,0,0.5-0.1,0.6-0.2c0.2-0.2,0.3-0.3,0.5-0.5c0.2-0.2,0.3-0.5,0.3-0.7c0.1-0.3,0.1-0.5,0.1-0.7V8.7
		c0-0.2,0-0.4-0.1-0.6c-0.1-0.2-0.2-0.4-0.3-0.6c-0.1-0.2-0.3-0.4-0.5-0.5c-0.2-0.2-0.4-0.2-0.6-0.2h-0.2V6.4z"/>
	<path d="M102.6,31.1h0.2c0.2,0,0.5-0.1,0.6-0.2c0.2-0.2,0.3-0.3,0.5-0.5c0.2-0.2,0.3-0.4,0.3-0.6c0.1-0.2,0.1-0.4,0.1-0.6V8.7
		c0-0.2,0-0.4-0.1-0.6c-0.1-0.2-0.2-0.4-0.3-0.6c-0.1-0.2-0.3-0.4-0.5-0.5c-0.2-0.2-0.4-0.2-0.6-0.2h-0.2V6.4h6.5v0.4h-0.2
		c-0.2,0-0.5,0.1-0.6,0.2c-0.2,0.1-0.3,0.3-0.5,0.5c-0.1,0.2-0.2,0.4-0.3,0.6c-0.1,0.2-0.1,0.4-0.1,0.6v21.3h9.9
		c0.6,0,1.1-0.1,1.5-0.3c0.4-0.2,0.8-0.5,1-0.8c0.3-0.4,0.5-0.7,0.6-1.1c0.2-0.4,0.2-0.8,0.2-1.1h0.5v4.8h-18.6V31.1z"/>
	<path d="M125,31.1h0.2c0.2,0,0.5-0.1,0.6-0.2c0.2-0.2,0.3-0.3,0.5-0.5c0.2-0.2,0.3-0.4,0.3-0.6c0.1-0.2,0.1-0.4,0.1-0.6V8.7
		c0-0.2,0-0.4-0.1-0.6c-0.1-0.2-0.2-0.4-0.3-0.6c-0.1-0.2-0.3-0.4-0.5-0.5c-0.2-0.2-0.4-0.2-0.6-0.2H125V6.4h6.5v0.4h-0.2
		c-0.2,0-0.5,0.1-0.6,0.2c-0.2,0.1-0.3,0.3-0.5,0.5c-0.1,0.2-0.2,0.4-0.3,0.6c-0.1,0.2-0.1,0.4-0.1,0.6v21.3h9.9
		c0.6,0,1.1-0.1,1.5-0.3c0.4-0.2,0.8-0.5,1-0.8c0.3-0.4,0.5-0.7,0.6-1.1c0.2-0.4,0.2-0.8,0.2-1.1h0.5v4.8H125V31.1z"/>
	<path d="M147.6,6.4h6.5v0.4h-0.2c-0.2,0-0.4,0.1-0.6,0.2c-0.2,0.1-0.3,0.3-0.5,0.5c-0.1,0.2-0.2,0.4-0.3,0.6
		c-0.1,0.2-0.1,0.4-0.1,0.6V29c0,0.2,0,0.4,0.1,0.7c0.1,0.2,0.2,0.4,0.3,0.6c0.2,0.2,0.3,0.4,0.5,0.5c0.2,0.2,0.4,0.2,0.6,0.2h0.2
		v0.4h-6.5v-0.4h0.2c0.2,0,0.5-0.1,0.6-0.2c0.2-0.2,0.3-0.3,0.5-0.5c0.2-0.2,0.3-0.5,0.3-0.7c0.1-0.3,0.1-0.5,0.1-0.7V8.7
		c0-0.2,0-0.4-0.1-0.6c-0.1-0.2-0.2-0.4-0.3-0.6c-0.1-0.2-0.3-0.4-0.5-0.5c-0.2-0.2-0.4-0.2-0.6-0.2h-0.2V6.4z"/>
</mask>
<path class="st3" d="M90.4,6.4h6.5v0.4h-0.2c-0.2,0-0.4,0.1-0.6,0.2c-0.2,0.1-0.3,0.3-0.5,0.5c-0.1,0.2-0.2,0.4-0.3,0.6
	c-0.1,0.2-0.1,0.4-0.1,0.6V29c0,0.2,0,0.4,0.1,0.7c0.1,0.2,0.2,0.4,0.3,0.6c0.2,0.2,0.3,0.4,0.5,0.5c0.2,0.2,0.4,0.2,0.6,0.2h0.2
	v0.4h-6.5v-0.4h0.2c0.2,0,0.5-0.1,0.6-0.2c0.2-0.2,0.3-0.3,0.5-0.5c0.2-0.2,0.3-0.5,0.3-0.7c0.1-0.3,0.1-0.5,0.1-0.7V8.7
	c0-0.2,0-0.4-0.1-0.6c-0.1-0.2-0.2-0.4-0.3-0.6c-0.1-0.2-0.3-0.4-0.5-0.5c-0.2-0.2-0.4-0.2-0.6-0.2h-0.2V6.4z"/>
<defs>
	
		<filter id="Adobe_OpacityMaskFilter_00000031913653132018240770000005442591863130608537_" filterUnits="userSpaceOnUse" x="102.1" y="5.9" width="19.6" height="26.1">
		<feColorMatrix  type="matrix" values="1 0 0 0 0  0 1 0 0 0  0 0 1 0 0  0 0 0 1 0"/>
	</filter>
</defs>
<mask maskUnits="userSpaceOnUse" x="102.1" y="5.9" width="19.6" height="26.1" id="path-2-outside-1_29_6_00000085954833209243523320000008313452532297773748_">
	
		<rect x="31.8" y="5" style="fill:#FFFFFF;filter:url(#Adobe_OpacityMaskFilter_00000031913653132018240770000005442591863130608537_);" width="123.8" height="28"/>
	<path d="M52.8,18.2h6.5v0.4H59c-0.2,0-0.5,0.1-0.6,0.2c-0.2,0.1-0.3,0.3-0.5,0.5c-0.1,0.2-0.2,0.4-0.3,0.6
		c-0.1,0.2-0.1,0.4-0.1,0.6v10.2c-0.5,0.2-1.2,0.3-1.9,0.5c-0.7,0.1-1.4,0.2-2.2,0.3c-0.8,0.1-1.5,0.2-2.3,0.2
		c-0.8,0.1-1.5,0.1-2.2,0.1c-2.7,0-5.1-0.4-7.1-1.1c-2-0.8-3.7-1.7-5-3c-1.3-1.2-2.3-2.6-3-4.2c-0.6-1.5-1-3.1-1-4.7s0.3-3.1,1-4.7
		c0.7-1.5,1.7-2.9,3-4.1c1.4-1.2,3-2.2,5.1-2.9C44,6.4,46.5,6,49.3,6c1.1,0,2,0.1,2.9,0.2c0.9,0.2,1.7,0.3,2.4,0.4
		c0.4,0.1,0.7,0.2,1,0.2c0.3,0.1,0.6,0.1,0.8,0.1h0.4v4h-0.5c-0.2-0.8-0.5-1.4-1.1-1.9c-0.5-0.5-1.1-0.8-1.8-1.1
		c-0.7-0.3-1.4-0.4-2.2-0.5c-0.8-0.1-1.5-0.2-2.1-0.2c-2.3,0-4.2,0.3-5.9,1c-1.7,0.7-3,1.5-4.1,2.6s-1.8,2.3-2.4,3.6
		c-0.5,1.3-0.8,2.6-0.8,4c0,1.5,0.3,2.9,1,4.4c0.7,1.4,1.6,2.7,2.8,3.8c1.2,1.1,2.7,2,4.3,2.7c1.7,0.7,3.6,1,5.7,1
		c0.6,0,1.3-0.1,2.1-0.2c0.8-0.1,1.7-0.4,2.5-0.8v-8.9c0-0.2,0-0.4-0.1-0.6c-0.1-0.2-0.2-0.4-0.3-0.6c-0.1-0.2-0.3-0.4-0.5-0.5
		c-0.2-0.2-0.4-0.2-0.6-0.2h-0.2V18.2z"/>
	<path d="M70.6,31.1h0.2v0.4h-6.4v-0.4h0.2c0.2,0,0.4-0.1,0.6-0.2c0.2-0.2,0.3-0.3,0.5-0.5c0.2-0.2,0.3-0.4,0.3-0.6
		c0.1-0.3,0.1-0.5,0.1-0.7V8.7c0-0.2,0-0.4-0.1-0.6c-0.1-0.2-0.2-0.4-0.3-0.6c-0.1-0.2-0.3-0.4-0.5-0.5c-0.2-0.2-0.4-0.2-0.6-0.2
		h-0.2V6.4h7.9c3,0,5.3,0.5,7,1.5c1.7,1,2.5,2.4,2.5,4.4c0,1-0.2,1.8-0.6,2.5c-0.4,0.7-0.9,1.3-1.5,1.9c-0.6,0.5-1.4,0.9-2.3,1.3
		c-0.8,0.3-1.7,0.5-2.7,0.7l3.3,4.2c0.8,1,1.6,2,2.4,3c0.8,1,1.6,2,2.4,3c0.2,0.3,0.4,0.5,0.7,0.8c0.3,0.3,0.5,0.5,0.8,0.8
		c0.3,0.2,0.6,0.4,0.9,0.6c0.3,0.1,0.7,0.2,1,0.2v0.4h-1.9c-1.2,0-2.2-0.2-3-0.7c-0.8-0.5-1.4-1.1-1.9-1.7c-1.4-1.7-2.7-3.4-4.1-5.1
		c-1.3-1.7-2.7-3.4-4-5.1c-0.3,0-0.7-0.1-1.1-0.1c-0.4-0.1-0.7-0.1-1-0.2V29c0,0.2,0,0.4,0.1,0.7c0.1,0.2,0.2,0.4,0.3,0.6
		c0.2,0.2,0.3,0.4,0.5,0.5C70.1,31,70.4,31.1,70.6,31.1z M69.2,7.7v9.7h0.2c0.2,0,0.6,0.1,1.1,0.1c0.5,0,1.2,0,2,0
		c0.6,0,1.3-0.1,2-0.2c0.7-0.2,1.4-0.5,2-0.8c0.6-0.4,1.1-0.9,1.5-1.6c0.4-0.6,0.6-1.4,0.6-2.4S78.4,10.6,78,10
		c-0.4-0.6-1-1.1-1.8-1.4c-0.8-0.4-1.7-0.6-2.8-0.7s-2.3-0.2-3.6-0.2H69.2z"/>
	<path d="M90.4,6.4h6.5v0.4h-0.2c-0.2,0-0.4,0.1-0.6,0.2c-0.2,0.1-0.3,0.3-0.5,0.5c-0.1,0.2-0.2,0.4-0.3,0.6
		c-0.1,0.2-0.1,0.4-0.1,0.6V29c0,0.2,0,0.4,0.1,0.7c0.1,0.2,0.2,0.4,0.3,0.6c0.2,0.2,0.3,0.4,0.5,0.5c0.2,0.2,0.4,0.2,0.6,0.2h0.2
		v0.4h-6.5v-0.4h0.2c0.2,0,0.5-0.1,0.6-0.2c0.2-0.2,0.3-0.3,0.5-0.5c0.2-0.2,0.3-0.5,0.3-0.7c0.1-0.3,0.1-0.5,0.1-0.7V8.7
		c0-0.2,0-0.4-0.1-0.6c-0.1-0.2-0.2-0.4-0.3-0.6c-0.1-0.2-0.3-0.4-0.5-0.5c-0.2-0.2-0.4-0.2-0.6-0.2h-0.2V6.4z"/>
	<path d="M102.6,31.1h0.2c0.2,0,0.5-0.1,0.6-0.2c0.2-0.2,0.3-0.3,0.5-0.5c0.2-0.2,0.3-0.4,0.3-0.6c0.1-0.2,0.1-0.4,0.1-0.6V8.7
		c0-0.2,0-0.4-0.1-0.6c-0.1-0.2-0.2-0.4-0.3-0.6c-0.1-0.2-0.3-0.4-0.5-0.5c-0.2-0.2-0.4-0.2-0.6-0.2h-0.2V6.4h6.5v0.4h-0.2
		c-0.2,0-0.5,0.1-0.6,0.2c-0.2,0.1-0.3,0.3-0.5,0.5c-0.1,0.2-0.2,0.4-0.3,0.6c-0.1,0.2-0.1,0.4-0.1,0.6v21.3h9.9
		c0.6,0,1.1-0.1,1.5-0.3c0.4-0.2,0.8-0.5,1-0.8c0.3-0.4,0.5-0.7,0.6-1.1c0.2-0.4,0.2-0.8,0.2-1.1h0.5v4.8h-18.6V31.1z"/>
	<path d="M125,31.1h0.2c0.2,0,0.5-0.1,0.6-0.2c0.2-0.2,0.3-0.3,0.5-0.5c0.2-0.2,0.3-0.4,0.3-0.6c0.1-0.2,0.1-0.4,0.1-0.6V8.7
		c0-0.2,0-0.4-0.1-0.6c-0.1-0.2-0.2-0.4-0.3-0.6c-0.1-0.2-0.3-0.4-0.5-0.5c-0.2-0.2-0.4-0.2-0.6-0.2H125V6.4h6.5v0.4h-0.2
		c-0.2,0-0.5,0.1-0.6,0.2c-0.2,0.1-0.3,0.3-0.5,0.5c-0.1,0.2-0.2,0.4-0.3,0.6c-0.1,0.2-0.1,0.4-0.1,0.6v21.3h9.9
		c0.6,0,1.1-0.1,1.5-0.3c0.4-0.2,0.8-0.5,1-0.8c0.3-0.4,0.5-0.7,0.6-1.1c0.2-0.4,0.2-0.8,0.2-1.1h0.5v4.8H125V31.1z"/>
	<path d="M147.6,6.4h6.5v0.4h-0.2c-0.2,0-0.4,0.1-0.6,0.2c-0.2,0.1-0.3,0.3-0.5,0.5c-0.1,0.2-0.2,0.4-0.3,0.6
		c-0.1,0.2-0.1,0.4-0.1,0.6V29c0,0.2,0,0.4,0.1,0.7c0.1,0.2,0.2,0.4,0.3,0.6c0.2,0.2,0.3,0.4,0.5,0.5c0.2,0.2,0.4,0.2,0.6,0.2h0.2
		v0.4h-6.5v-0.4h0.2c0.2,0,0.5-0.1,0.6-0.2c0.2-0.2,0.3-0.3,0.5-0.5c0.2-0.2,0.3-0.5,0.3-0.7c0.1-0.3,0.1-0.5,0.1-0.7V8.7
		c0-0.2,0-0.4-0.1-0.6c-0.1-0.2-0.2-0.4-0.3-0.6c-0.1-0.2-0.3-0.4-0.5-0.5c-0.2-0.2-0.4-0.2-0.6-0.2h-0.2V6.4z"/>
</mask>
<path class="st5" d="M102.6,31.1h0.2c0.2,0,0.5-0.1,0.6-0.2c0.2-0.2,0.3-0.3,0.5-0.5c0.2-0.2,0.3-0.4,0.3-0.6
	c0.1-0.2,0.1-0.4,0.1-0.6V8.7c0-0.2,0-0.4-0.1-0.6c-0.1-0.2-0.2-0.4-0.3-0.6c-0.1-0.2-0.3-0.4-0.5-0.5c-0.2-0.2-0.4-0.2-0.6-0.2
	h-0.2V6.4h6.5v0.4h-0.2c-0.2,0-0.5,0.1-0.6,0.2c-0.2,0.1-0.3,0.3-0.5,0.5c-0.1,0.2-0.2,0.4-0.3,0.6c-0.1,0.2-0.1,0.4-0.1,0.6v21.3
	h9.9c0.6,0,1.1-0.1,1.5-0.3c0.4-0.2,0.8-0.5,1-0.8c0.3-0.4,0.5-0.7,0.6-1.1c0.2-0.4,0.2-0.8,0.2-1.1h0.5v4.8h-18.6V31.1z"/>
<defs>
	
		<filter id="Adobe_OpacityMaskFilter_00000119101120014908211230000000840347898517698721_" filterUnits="userSpaceOnUse" x="124.5" y="5.9" width="19.6" height="26.1">
		<feColorMatrix  type="matrix" values="1 0 0 0 0  0 1 0 0 0  0 0 1 0 0  0 0 0 1 0"/>
	</filter>
</defs>
<mask maskUnits="userSpaceOnUse" x="124.5" y="5.9" width="19.6" height="26.1" id="path-2-outside-1_29_6_00000128475164532033999990000007768738631923427979_">
	
		<rect x="31.8" y="5" style="fill:#FFFFFF;filter:url(#Adobe_OpacityMaskFilter_00000119101120014908211230000000840347898517698721_);" width="123.8" height="28"/>
	<path d="M52.8,18.2h6.5v0.4H59c-0.2,0-0.5,0.1-0.6,0.2c-0.2,0.1-0.3,0.3-0.5,0.5c-0.1,0.2-0.2,0.4-0.3,0.6
		c-0.1,0.2-0.1,0.4-0.1,0.6v10.2c-0.5,0.2-1.2,0.3-1.9,0.5c-0.7,0.1-1.4,0.2-2.2,0.3c-0.8,0.1-1.5,0.2-2.3,0.2
		c-0.8,0.1-1.5,0.1-2.2,0.1c-2.7,0-5.1-0.4-7.1-1.1c-2-0.8-3.7-1.7-5-3c-1.3-1.2-2.3-2.6-3-4.2c-0.6-1.5-1-3.1-1-4.7s0.3-3.1,1-4.7
		c0.7-1.5,1.7-2.9,3-4.1c1.4-1.2,3-2.2,5.1-2.9C44,6.4,46.5,6,49.3,6c1.1,0,2,0.1,2.9,0.2c0.9,0.2,1.7,0.3,2.4,0.4
		c0.4,0.1,0.7,0.2,1,0.2c0.3,0.1,0.6,0.1,0.8,0.1h0.4v4h-0.5c-0.2-0.8-0.5-1.4-1.1-1.9c-0.5-0.5-1.1-0.8-1.8-1.1
		c-0.7-0.3-1.4-0.4-2.2-0.5c-0.8-0.1-1.5-0.2-2.1-0.2c-2.3,0-4.2,0.3-5.9,1c-1.7,0.7-3,1.5-4.1,2.6s-1.8,2.3-2.4,3.6
		c-0.5,1.3-0.8,2.6-0.8,4c0,1.5,0.3,2.9,1,4.4c0.7,1.4,1.6,2.7,2.8,3.8c1.2,1.1,2.7,2,4.3,2.7c1.7,0.7,3.6,1,5.7,1
		c0.6,0,1.3-0.1,2.1-0.2c0.8-0.1,1.7-0.4,2.5-0.8v-8.9c0-0.2,0-0.4-0.1-0.6c-0.1-0.2-0.2-0.4-0.3-0.6c-0.1-0.2-0.3-0.4-0.5-0.5
		c-0.2-0.2-0.4-0.2-0.6-0.2h-0.2V18.2z"/>
	<path d="M70.6,31.1h0.2v0.4h-6.4v-0.4h0.2c0.2,0,0.4-0.1,0.6-0.2c0.2-0.2,0.3-0.3,0.5-0.5c0.2-0.2,0.3-0.4,0.3-0.6
		c0.1-0.3,0.1-0.5,0.1-0.7V8.7c0-0.2,0-0.4-0.1-0.6c-0.1-0.2-0.2-0.4-0.3-0.6c-0.1-0.2-0.3-0.4-0.5-0.5c-0.2-0.2-0.4-0.2-0.6-0.2
		h-0.2V6.4h7.9c3,0,5.3,0.5,7,1.5c1.7,1,2.5,2.4,2.5,4.4c0,1-0.2,1.8-0.6,2.5c-0.4,0.7-0.9,1.3-1.5,1.9c-0.6,0.5-1.4,0.9-2.3,1.3
		c-0.8,0.3-1.7,0.5-2.7,0.7l3.3,4.2c0.8,1,1.6,2,2.4,3c0.8,1,1.6,2,2.4,3c0.2,0.3,0.4,0.5,0.7,0.8c0.3,0.3,0.5,0.5,0.8,0.8
		c0.3,0.2,0.6,0.4,0.9,0.6c0.3,0.1,0.7,0.2,1,0.2v0.4h-1.9c-1.2,0-2.2-0.2-3-0.7c-0.8-0.5-1.4-1.1-1.9-1.7c-1.4-1.7-2.7-3.4-4.1-5.1
		c-1.3-1.7-2.7-3.4-4-5.1c-0.3,0-0.7-0.1-1.1-0.1c-0.4-0.1-0.7-0.1-1-0.2V29c0,0.2,0,0.4,0.1,0.7c0.1,0.2,0.2,0.4,0.3,0.6
		c0.2,0.2,0.3,0.4,0.5,0.5C70.1,31,70.4,31.1,70.6,31.1z M69.2,7.7v9.7h0.2c0.2,0,0.6,0.1,1.1,0.1c0.5,0,1.2,0,2,0
		c0.6,0,1.3-0.1,2-0.2c0.7-0.2,1.4-0.5,2-0.8c0.6-0.4,1.1-0.9,1.5-1.6c0.4-0.6,0.6-1.4,0.6-2.4S78.4,10.6,78,10
		c-0.4-0.6-1-1.1-1.8-1.4c-0.8-0.4-1.7-0.6-2.8-0.7s-2.3-0.2-3.6-0.2H69.2z"/>
	<path d="M90.4,6.4h6.5v0.4h-0.2c-0.2,0-0.4,0.1-0.6,0.2c-0.2,0.1-0.3,0.3-0.5,0.5c-0.1,0.2-0.2,0.4-0.3,0.6
		c-0.1,0.2-0.1,0.4-0.1,0.6V29c0,0.2,0,0.4,0.1,0.7c0.1,0.2,0.2,0.4,0.3,0.6c0.2,0.2,0.3,0.4,0.5,0.5c0.2,0.2,0.4,0.2,0.6,0.2h0.2
		v0.4h-6.5v-0.4h0.2c0.2,0,0.5-0.1,0.6-0.2c0.2-0.2,0.3-0.3,0.5-0.5c0.2-0.2,0.3-0.5,0.3-0.7c0.1-0.3,0.1-0.5,0.1-0.7V8.7
		c0-0.2,0-0.4-0.1-0.6c-0.1-0.2-0.2-0.4-0.3-0.6c-0.1-0.2-0.3-0.4-0.5-0.5c-0.2-0.2-0.4-0.2-0.6-0.2h-0.2V6.4z"/>
	<path d="M102.6,31.1h0.2c0.2,0,0.5-0.1,0.6-0.2c0.2-0.2,0.3-0.3,0.5-0.5c0.2-0.2,0.3-0.4,0.3-0.6c0.1-0.2,0.1-0.4,0.1-0.6V8.7
		c0-0.2,0-0.4-0.1-0.6c-0.1-0.2-0.2-0.4-0.3-0.6c-0.1-0.2-0.3-0.4-0.5-0.5c-0.2-0.2-0.4-0.2-0.6-0.2h-0.2V6.4h6.5v0.4h-0.2
		c-0.2,0-0.5,0.1-0.6,0.2c-0.2,0.1-0.3,0.3-0.5,0.5c-0.1,0.2-0.2,0.4-0.3,0.6c-0.1,0.2-0.1,0.4-0.1,0.6v21.3h9.9
		c0.6,0,1.1-0.1,1.5-0.3c0.4-0.2,0.8-0.5,1-0.8c0.3-0.4,0.5-0.7,0.6-1.1c0.2-0.4,0.2-0.8,0.2-1.1h0.5v4.8h-18.6V31.1z"/>
	<path d="M125,31.1h0.2c0.2,0,0.5-0.1,0.6-0.2c0.2-0.2,0.3-0.3,0.5-0.5c0.2-0.2,0.3-0.4,0.3-0.6c0.1-0.2,0.1-0.4,0.1-0.6V8.7
		c0-0.2,0-0.4-0.1-0.6c-0.1-0.2-0.2-0.4-0.3-0.6c-0.1-0.2-0.3-0.4-0.5-0.5c-0.2-0.2-0.4-0.2-0.6-0.2H125V6.4h6.5v0.4h-0.2
		c-0.2,0-0.5,0.1-0.6,0.2c-0.2,0.1-0.3,0.3-0.5,0.5c-0.1,0.2-0.2,0.4-0.3,0.6c-0.1,0.2-0.1,0.4-0.1,0.6v21.3h9.9
		c0.6,0,1.1-0.1,1.5-0.3c0.4-0.2,0.8-0.5,1-0.8c0.3-0.4,0.5-0.7,0.6-1.1c0.2-0.4,0.2-0.8,0.2-1.1h0.5v4.8H125V31.1z"/>
	<path d="M147.6,6.4h6.5v0.4h-0.2c-0.2,0-0.4,0.1-0.6,0.2c-0.2,0.1-0.3,0.3-0.5,0.5c-0.1,0.2-0.2,0.4-0.3,0.6
		c-0.1,0.2-0.1,0.4-0.1,0.6V29c0,0.2,0,0.4,0.1,0.7c0.1,0.2,0.2,0.4,0.3,0.6c0.2,0.2,0.3,0.4,0.5,0.5c0.2,0.2,0.4,0.2,0.6,0.2h0.2
		v0.4h-6.5v-0.4h0.2c0.2,0,0.5-0.1,0.6-0.2c0.2-0.2,0.3-0.3,0.5-0.5c0.2-0.2,0.3-0.5,0.3-0.7c0.1-0.3,0.1-0.5,0.1-0.7V8.7
		c0-0.2,0-0.4-0.1-0.6c-0.1-0.2-0.2-0.4-0.3-0.6c-0.1-0.2-0.3-0.4-0.5-0.5c-0.2-0.2-0.4-0.2-0.6-0.2h-0.2V6.4z"/>
</mask>
<path class="st7" d="M125,31.1h0.2c0.2,0,0.5-0.1,0.6-0.2c0.2-0.2,0.3-0.3,0.5-0.5c0.2-0.2,0.3-0.4,0.3-0.6c0.1-0.2,0.1-0.4,0.1-0.6
	V8.7c0-0.2,0-0.4-0.1-0.6c-0.1-0.2-0.2-0.4-0.3-0.6c-0.1-0.2-0.3-0.4-0.5-0.5c-0.2-0.2-0.4-0.2-0.6-0.2H125V6.4h6.5v0.4h-0.2
	c-0.2,0-0.5,0.1-0.6,0.2c-0.2,0.1-0.3,0.3-0.5,0.5c-0.1,0.2-0.2,0.4-0.3,0.6c-0.1,0.2-0.1,0.4-0.1,0.6v21.3h9.9
	c0.6,0,1.1-0.1,1.5-0.3c0.4-0.2,0.8-0.5,1-0.8c0.3-0.4,0.5-0.7,0.6-1.1c0.2-0.4,0.2-0.8,0.2-1.1h0.5v4.8H125V31.1z"/>
<defs>
	
		<filter id="Adobe_OpacityMaskFilter_00000155850468291842514950000012492585108434796947_" filterUnits="userSpaceOnUse" x="147.1" y="5.9" width="7.5" height="26.1">
		<feColorMatrix  type="matrix" values="1 0 0 0 0  0 1 0 0 0  0 0 1 0 0  0 0 0 1 0"/>
	</filter>
</defs>
<mask maskUnits="userSpaceOnUse" x="147.1" y="5.9" width="7.5" height="26.1" id="path-2-outside-1_29_6_00000039102088982920690320000009047201429454579126_">
	
		<rect x="31.8" y="5" style="fill:#FFFFFF;filter:url(#Adobe_OpacityMaskFilter_00000155850468291842514950000012492585108434796947_);" width="123.8" height="28"/>
	<path d="M52.8,18.2h6.5v0.4H59c-0.2,0-0.5,0.1-0.6,0.2c-0.2,0.1-0.3,0.3-0.5,0.5c-0.1,0.2-0.2,0.4-0.3,0.6
		c-0.1,0.2-0.1,0.4-0.1,0.6v10.2c-0.5,0.2-1.2,0.3-1.9,0.5c-0.7,0.1-1.4,0.2-2.2,0.3c-0.8,0.1-1.5,0.2-2.3,0.2
		c-0.8,0.1-1.5,0.1-2.2,0.1c-2.7,0-5.1-0.4-7.1-1.1c-2-0.8-3.7-1.7-5-3c-1.3-1.2-2.3-2.6-3-4.2c-0.6-1.5-1-3.1-1-4.7s0.3-3.1,1-4.7
		c0.7-1.5,1.7-2.9,3-4.1c1.4-1.2,3-2.2,5.1-2.9C44,6.4,46.5,6,49.3,6c1.1,0,2,0.1,2.9,0.2c0.9,0.2,1.7,0.3,2.4,0.4
		c0.4,0.1,0.7,0.2,1,0.2c0.3,0.1,0.6,0.1,0.8,0.1h0.4v4h-0.5c-0.2-0.8-0.5-1.4-1.1-1.9c-0.5-0.5-1.1-0.8-1.8-1.1
		c-0.7-0.3-1.4-0.4-2.2-0.5c-0.8-0.1-1.5-0.2-2.1-0.2c-2.3,0-4.2,0.3-5.9,1c-1.7,0.7-3,1.5-4.1,2.6s-1.8,2.3-2.4,3.6
		c-0.5,1.3-0.8,2.6-0.8,4c0,1.5,0.3,2.9,1,4.4c0.7,1.4,1.6,2.7,2.8,3.8c1.2,1.1,2.7,2,4.3,2.7c1.7,0.7,3.6,1,5.7,1
		c0.6,0,1.3-0.1,2.1-0.2c0.8-0.1,1.7-0.4,2.5-0.8v-8.9c0-0.2,0-0.4-0.1-0.6c-0.1-0.2-0.2-0.4-0.3-0.6c-0.1-0.2-0.3-0.4-0.5-0.5
		c-0.2-0.2-0.4-0.2-0.6-0.2h-0.2V18.2z"/>
	<path d="M70.6,31.1h0.2v0.4h-6.4v-0.4h0.2c0.2,0,0.4-0.1,0.6-0.2c0.2-0.2,0.3-0.3,0.5-0.5c0.2-0.2,0.3-0.4,0.3-0.6
		c0.1-0.3,0.1-0.5,0.1-0.7V8.7c0-0.2,0-0.4-0.1-0.6c-0.1-0.2-0.2-0.4-0.3-0.6c-0.1-0.2-0.3-0.4-0.5-0.5c-0.2-0.2-0.4-0.2-0.6-0.2
		h-0.2V6.4h7.9c3,0,5.3,0.5,7,1.5c1.7,1,2.5,2.4,2.5,4.4c0,1-0.2,1.8-0.6,2.5c-0.4,0.7-0.9,1.3-1.5,1.9c-0.6,0.5-1.4,0.9-2.3,1.3
		c-0.8,0.3-1.7,0.5-2.7,0.7l3.3,4.2c0.8,1,1.6,2,2.4,3c0.8,1,1.6,2,2.4,3c0.2,0.3,0.4,0.5,0.7,0.8c0.3,0.3,0.5,0.5,0.8,0.8
		c0.3,0.2,0.6,0.4,0.9,0.6c0.3,0.1,0.7,0.2,1,0.2v0.4h-1.9c-1.2,0-2.2-0.2-3-0.7c-0.8-0.5-1.4-1.1-1.9-1.7c-1.4-1.7-2.7-3.4-4.1-5.1
		c-1.3-1.7-2.7-3.4-4-5.1c-0.3,0-0.7-0.1-1.1-0.1c-0.4-0.1-0.7-0.1-1-0.2V29c0,0.2,0,0.4,0.1,0.7c0.1,0.2,0.2,0.4,0.3,0.6
		c0.2,0.2,0.3,0.4,0.5,0.5C70.1,31,70.4,31.1,70.6,31.1z M69.2,7.7v9.7h0.2c0.2,0,0.6,0.1,1.1,0.1c0.5,0,1.2,0,2,0
		c0.6,0,1.3-0.1,2-0.2c0.7-0.2,1.4-0.5,2-0.8c0.6-0.4,1.1-0.9,1.5-1.6c0.4-0.6,0.6-1.4,0.6-2.4S78.4,10.6,78,10
		c-0.4-0.6-1-1.1-1.8-1.4c-0.8-0.4-1.7-0.6-2.8-0.7s-2.3-0.2-3.6-0.2H69.2z"/>
	<path d="M90.4,6.4h6.5v0.4h-0.2c-0.2,0-0.4,0.1-0.6,0.2c-0.2,0.1-0.3,0.3-0.5,0.5c-0.1,0.2-0.2,0.4-0.3,0.6
		c-0.1,0.2-0.1,0.4-0.1,0.6V29c0,0.2,0,0.4,0.1,0.7c0.1,0.2,0.2,0.4,0.3,0.6c0.2,0.2,0.3,0.4,0.5,0.5c0.2,0.2,0.4,0.2,0.6,0.2h0.2
		v0.4h-6.5v-0.4h0.2c0.2,0,0.5-0.1,0.6-0.2c0.2-0.2,0.3-0.3,0.5-0.5c0.2-0.2,0.3-0.5,0.3-0.7c0.1-0.3,0.1-0.5,0.1-0.7V8.7
		c0-0.2,0-0.4-0.1-0.6c-0.1-0.2-0.2-0.4-0.3-0.6c-0.1-0.2-0.3-0.4-0.5-0.5c-0.2-0.2-0.4-0.2-0.6-0.2h-0.2V6.4z"/>
	<path d="M102.6,31.1h0.2c0.2,0,0.5-0.1,0.6-0.2c0.2-0.2,0.3-0.3,0.5-0.5c0.2-0.2,0.3-0.4,0.3-0.6c0.1-0.2,0.1-0.4,0.1-0.6V8.7
		c0-0.2,0-0.4-0.1-0.6c-0.1-0.2-0.2-0.4-0.3-0.6c-0.1-0.2-0.3-0.4-0.5-0.5c-0.2-0.2-0.4-0.2-0.6-0.2h-0.2V6.4h6.5v0.4h-0.2
		c-0.2,0-0.5,0.1-0.6,0.2c-0.2,0.1-0.3,0.3-0.5,0.5c-0.1,0.2-0.2,0.4-0.3,0.6c-0.1,0.2-0.1,0.4-0.1,0.6v21.3h9.9
		c0.6,0,1.1-0.1,1.5-0.3c0.4-0.2,0.8-0.5,1-0.8c0.3-0.4,0.5-0.7,0.6-1.1c0.2-0.4,0.2-0.8,0.2-1.1h0.5v4.8h-18.6V31.1z"/>
	<path d="M125,31.1h0.2c0.2,0,0.5-0.1,0.6-0.2c0.2-0.2,0.3-0.3,0.5-0.5c0.2-0.2,0.3-0.4,0.3-0.6c0.1-0.2,0.1-0.4,0.1-0.6V8.7
		c0-0.2,0-0.4-0.1-0.6c-0.1-0.2-0.2-0.4-0.3-0.6c-0.1-0.2-0.3-0.4-0.5-0.5c-0.2-0.2-0.4-0.2-0.6-0.2H125V6.4h6.5v0.4h-0.2
		c-0.2,0-0.5,0.1-0.6,0.2c-0.2,0.1-0.3,0.3-0.5,0.5c-0.1,0.2-0.2,0.4-0.3,0.6c-0.1,0.2-0.1,0.4-0.1,0.6v21.3h9.9
		c0.6,0,1.1-0.1,1.5-0.3c0.4-0.2,0.8-0.5,1-0.8c0.3-0.4,0.5-0.7,0.6-1.1c0.2-0.4,0.2-0.8,0.2-1.1h0.5v4.8H125V31.1z"/>
	<path d="M147.6,6.4h6.5v0.4h-0.2c-0.2,0-0.4,0.1-0.6,0.2c-0.2,0.1-0.3,0.3-0.5,0.5c-0.1,0.2-0.2,0.4-0.3,0.6
		c-0.1,0.2-0.1,0.4-0.1,0.6V29c0,0.2,0,0.4,0.1,0.7c0.1,0.2,0.2,0.4,0.3,0.6c0.2,0.2,0.3,0.4,0.5,0.5c0.2,0.2,0.4,0.2,0.6,0.2h0.2
		v0.4h-6.5v-0.4h0.2c0.2,0,0.5-0.1,0.6-0.2c0.2-0.2,0.3-0.3,0.5-0.5c0.2-0.2,0.3-0.5,0.3-0.7c0.1-0.3,0.1-0.5,0.1-0.7V8.7
		c0-0.2,0-0.4-0.1-0.6c-0.1-0.2-0.2-0.4-0.3-0.6c-0.1-0.2-0.3-0.4-0.5-0.5c-0.2-0.2-0.4-0.2-0.6-0.2h-0.2V6.4z"/>
</mask>
<path class="st9" d="M147.6,6.4h6.5v0.4h-0.2c-0.2,0-0.4,0.1-0.6,0.2c-0.2,0.1-0.3,0.3-0.5,0.5c-0.1,0.2-0.2,0.4-0.3,0.6
	c-0.1,0.2-0.1,0.4-0.1,0.6V29c0,0.2,0,0.4,0.1,0.7c0.1,0.2,0.2,0.4,0.3,0.6c0.2,0.2,0.3,0.4,0.5,0.5c0.2,0.2,0.4,0.2,0.6,0.2h0.2
	v0.4h-6.5v-0.4h0.2c0.2,0,0.5-0.1,0.6-0.2c0.2-0.2,0.3-0.3,0.5-0.5c0.2-0.2,0.3-0.5,0.3-0.7c0.1-0.3,0.1-0.5,0.1-0.7V8.7
	c0-0.2,0-0.4-0.1-0.6c-0.1-0.2-0.2-0.4-0.3-0.6c-0.1-0.2-0.3-0.4-0.5-0.5c-0.2-0.2-0.4-0.2-0.6-0.2h-0.2V6.4z"/>
<path class="st10" d="M32.5,42.6C29.7,44.1,26.4,45,23,45C12,45,3,36,3,25S12,5,23,5c3.1,0,5.9,0.7,8.5,1.9
	c-0.2,0.2-0.3,0.4-0.5,0.7c-0.7,1.1-1.2,2.5-1.6,3.9c-2-0.9-4.2-1.5-6.5-1.5c-8.3,0-15,6.7-15,15s6.7,15,15,15
	c4.3,0,8.2-1.8,10.9-4.7c-0.3,1.1-0.7,2.3-1.3,3.6c-0.4,0.9-0.5,1.5-0.5,2.5C32.1,41.9,32.3,42.2,32.5,42.6z M29,14.6
	c-0.2,3.7,1,7.3,4.1,8.6c1,0.9,1.6,2,1.6,3.4c0,0.3,0,0.6,0,0.9c-1.2,5.4-6,9.5-11.7,9.5c-6.6,0-12-5.4-12-12s5.4-12,12-12
	C25.2,13,27.2,13.6,29,14.6z"/>
<path class="st0" d="M41.8,22.9c5-2.3,4.8-9.7,2-14.3c-2.8-4.7-7-4.8-9.9,0c-2.8,4.6-3,12,2,14.3c0.9,0.9,1.6,2.6,1.6,3.9
	c0,4.2,0.3,7.5-1.9,12.3c-0.4,0.9-0.6,1.5-0.6,2.1c0,2.1,1.7,3.8,3.8,3.8c2.1,0,3.8-1.7,3.8-3.8c0-0.5-0.2-1.2-0.6-2.1
	c-2.2-4.9-1.9-8.4-1.9-12.3C40.1,25.4,40.8,23.7,41.8,22.9z"/>
<text transform="matrix(1.1648 0 0 1 60.7944 31.1689)" class="st1 st11 st12">D</text>
</svg>
